# xmcd
#
# Track frame offsets:
#	150
#	13318
#	26231
#	37374
#	51371
#	61083
#	74209
#	87411
#	100953
#	112837
#	124255
#	141996
#	154711
#	165857
#	177959
#
# Disc length: 2516 seconds
# Revision: 0
# Processed by: cddbd v1.5.2PL0 Copyright (c) Steve Scherf et al.
# Submitted via: dBpowerAMP V12.0
#
DISCID=d909d20f
DTITLE=Albert King - The Big Blues
DYEAR=1963
DGENRE=Blues
TTITLE0=Let's Have a Natural Ball
TTITLE1=What Can i Do to Change Your Mind
TTITLE2=I Get Evil
TTITLE3=Had You Told it Like it Was
TTITLE4=This Morning
TTITLE5=I Walked All Night Long
TTITLE6=Don't Throw Your Love on Me So Strong
TTITLE7=Travelin' to California
TTITLE8=I've Made Nights by Myself
TTITLE9=This Funny Feeling
TTITLE10=Ooh-ee Baby
TTITLE11=Dyna Flow
TTITLE12=Why Are You so Mean to Me [Bonus]
TTITLE13=Blues at Sunrise [Bonus]
TTITLE14=Old Blue Ribbon [Bonus]
EXTD=
EXTT0=
EXTT1=
EXTT2=
EXTT3=
EXTT4=
EXTT5=
EXTT6=
EXTT7=
EXTT8=
EXTT9=
EXTT10=
EXTT11=
EXTT12=
EXTT13=
EXTT14=
PLAYORDER=
